<svg width="468" height="468" viewBox="0 0 468 468" fill="none" xmlns="http://www.w3.org/2000/svg">
<path d="M233.7 467.4C362.769 467.4 467.4 362.769 467.4 233.7C467.4 104.631 362.769 0 233.7 0C104.631 0 0 104.631 0 233.7C0 362.769 104.631 467.4 233.7 467.4Z" fill="black"/>
<path d="M348.9 194.4C356.908 194.4 363.4 187.908 363.4 179.9C363.4 171.892 356.908 165.4 348.9 165.4C340.892 165.4 334.4 171.892 334.4 179.9C334.4 187.908 340.892 194.4 348.9 194.4Z" fill="#F0672D"/>
<path d="M104.7 270.8C104.7 270.8 65.8001 144.9 221.5 85.6C221.5 85.6 282.2 61.9 312.9 86.5C312.9 86.5 324.7 94.7 326.1 95.7C336.8 103 342.6 105.7 343.6 111.1C345.9 123.6 338.6 127.9 335.1 130.1C330.5 132.9 296.4 142.8 284.1 142.6C282.1 142.7 266.8 139.6 256.8 136.7C251.4 135.2 237.7 137.3 220 150.4C208.9 158.6 196.3 171 183.1 189.4C183.1 189.4 159.9 221.1 171 255.7C171 255.7 180.4 366.5 270.7 358.5C270.7 358.5 368 352.6 352 233.4C352 233.4 354.4 223.8 361.1 234.3C367 243.6 376 266.1 370.3 296.7C364.4 328.4 343.3 381.3 272.6 394.2C272.6 394.2 152.5 421 104.7 271V270.8Z" fill="white"/>
<path d="M192.7 179.9C192.7 179.9 192.9 179.9 192.9 179.8C198.7 176.9 200.4 183.2 210.9 191.6C220.8 199.5 233.8 193 235.5 192.2C235.6 192.2 235.7 192.1 235.8 192C240.6 188.5 246 187.4 246.5 189.5C246.9 191.2 253.8 210.6 261.9 200.3C268.3 192.1 258.8 188.3 254.1 186.9C252.4 186.4 251.4 184.6 252 182.9C252.6 181.2 252.2 182.4 252.3 182.2C252.9 181 254.2 180.4 255.5 180.6C276 184.1 271.5 170.7 271.5 170.6C264.7 159.3 255.4 172 252.8 172.8C252.1 173 251.4 173 250.9 172.8C249.4 172.4 248.5 170.7 248.8 169.2C252.7 151.3 243.6 153 241.4 153.7C241.1 153.7 240.9 153.9 240.6 154C229.5 161 243.2 168.1 241.5 171.4C238.6 177.2 222.5 175.2 222.3 173.7C210.6 164.5 215.9 152.2 216 152.3C232.4 128.9 148.6 206.8 192.6 179.7L192.7 179.9Z" fill="white"/>
<path d="M150 126.5C150 126.5 150.1 126.3 150.2 126.3C153.7 120.8 147.5 118.5 140.2 107.2C132.9 95.9 141 84.2 142 82.7C142 82.6 142.1 82.5001 142.2 82.4001C146.1 77.9001 147.7 72.7 145.7 72C144 71.4 125.4 62.7 136.4 55.7C145.2 50.1 148.1 60 149 64.7C149.3 66.5 151.1 67.6 152.8 67.2C154.5 66.8 153.3 67.1 153.5 67C154.7 66.5 155.5 65.3001 155.4 63.9001C153.9 43.2001 166.8 48.9001 166.9 48.9001C177.5 56.8001 164 64.8001 162.9 67.3001C162.6 68.0001 162.5 68.6 162.6 69.2C162.9 70.8 164.4 71.8 166 71.6C184.2 69.4 181.6 78.4 180.7 80.5C179.8 82.6 180.5 81 180.3 81.2C172.2 91.6 166.5 77.2 163.1 78.6C157.1 81 157.5 97.1 159 97.5C167.1 110 179.8 105.9 179.7 105.8C204.5 91.7001 119.1 167.7 150.1 126.5H150Z" fill="white"/>
<path d="M204.9 237.7C212.2 241.3 217.3 243.4 220.9 258.3C224.1 271.8 230.7 265.6 231.9 264.3C233.1 263 232.1 264 232.1 263.8C232.1 261.8 233 249.9 241.7 252.6C251.5 255.7 242.9 269.1 236.8 267.3C236.6 267.3 236.3 267.3 236.1 267.5C235.2 268.3 232.8 270.8 234.7 273.7C236.9 277 241 275.1 241.6 274.8C242.2 274.5 241.6 274.8 241.8 274.8C242.8 274.6 251.6 272.6 252.9 279.3C254.3 286.3 245.4 290 239.3 283.2C239.2 283.1 239.1 283 238.9 283C237.8 282.7 233 281.7 232.5 283.7C232 286 231.2 287.1 235.3 291.6C235.3 291.6 235.5 291.7 235.6 291.8C236.6 292.2 242.2 294.7 241.5 299.8C241 304 234.2 308.7 229.6 304.1C224.7 299.3 230 293.1 229.3 293.4C229.8 293.2 227.2 289.3 226.5 288.3C225.8 287.3 226.2 288 226.1 288C224.9 287.7 220.4 286.8 219.7 288.1C219.5 288.1 216.6 290.7 216.9 293.2C217.2 295.3 214.6 302.5 207.9 298.1C201.7 294 206.4 286.2 211.2 286.5C211.2 286.5 215 286.1 215.3 283.4C215.6 280.7 205.4 266 202.8 264.4C200.2 262.8 202.4 264.3 202.2 264.4C200 265.2 184.4 271.5 179.3 293.9C179.1 294.6 178.1 294.7 177.9 293.9L163.7 256.3C162.8 253.9 163.9 251.2 166.2 250.1C175.8 245.6 199.2 235.1 204.9 237.9V237.7Z" fill="white"/>
<path d="M65.6 295.1C65.1 303.2 62.9 308.5 73 320.1C80.3 328.5 76 331.3 73.1 332.1C72 332.4 70.8001 332.3 69.8001 331.7C66.7001 329.9 58.6001 326.1 56.2001 333.6C53.2001 342.7 66.6001 344.1 70.3001 339.4C71.5001 337.8 73.7 337.2 75.5 338.1C76.3 338.5 77.0001 339.2 77.4001 340.3C78.7001 343.6 75.5 345.8 74.5 346.4C73.5 347 74.0001 346.7 73.8001 346.9C72.2001 348.4 67.1001 353.7 71.4001 358.2C76.2001 363.2 83.9001 358.7 82.7001 350.3C82.6001 349.5 82.7 348.7 83 347.9C83.8 346.2 85.3001 343.5 86.9001 344.2C88.5001 344.9 90.3 345.1 91.5 350.3C91.6 350.8 91.6 351.4 91.5 352C91.2 353.9 90.7 358.8 94.6 360.9C98.3 362.9 106.1 360.2 105.1 353.8C104 347 96 347.7 96.6 347.3C96.2 347.5 95.2 345.1 94.6 343.4C94 341.7 94.2001 341.1 94.7001 340.1C95.5001 338.5 96.8001 336.2 97.9001 336.4C98.0001 336.2 101.9 335.4 103.7 337.1C105.3 338.6 112.6 340.7 112.9 332.7C113.2 325.3 104.1 324.5 101.5 328.6C101.5 328.6 99 331.5 96.6 330.1C94.2 328.7 84.4 309.4 88.6 308.5C92.9 307.6 125 309.9 128.5 308.1C129.1 307.8 129.9 307.8 130.8 308.1C134.3 309.1 137.4 305.7 136 302.4C130.6 290.1 122.2 273.4 115.5 271.3C103.2 267.4 66.4001 284.7 65.8001 295.1H65.6Z" fill="white"/>
<path d="M283.9 123.1C291.632 123.1 297.9 116.832 297.9 109.1C297.9 101.368 291.632 95.1001 283.9 95.1001C276.168 95.1001 269.9 101.368 269.9 109.1C269.9 116.832 276.168 123.1 283.9 123.1Z" fill="black"/>
</svg>
