<svg width="83" height="84" viewBox="0 0 83 84" fill="none" xmlns="http://www.w3.org/2000/svg">
<path d="M41.5 83.5C64.4198 83.5 83 64.9198 83 42C83 19.0802 64.4198 0.5 41.5 0.5C18.5802 0.5 0 19.0802 0 42C0 64.9198 18.5802 83.5 41.5 83.5Z" fill="white"/>
<path d="M61.9376 35.0042C63.3589 35.0042 64.5111 33.852 64.5111 32.4307C64.5111 31.0095 63.3589 29.8573 61.9376 29.8573C60.5164 29.8573 59.3642 31.0095 59.3642 32.4307C59.3642 33.852 60.5164 35.0042 61.9376 35.0042Z" fill="#F0672D"/>
<path d="M18.5888 48.571C18.5888 48.571 11.693 26.2344 39.3263 15.6908C39.3263 15.6908 50.1198 11.4933 55.5416 15.8407C55.5416 15.8407 57.6403 17.2898 57.8901 17.4647C59.789 18.7639 60.8134 19.2386 60.9883 20.1881C61.388 22.4117 60.1138 23.1863 59.4892 23.561C58.6647 24.0607 52.6183 25.8097 50.4446 25.7847C50.0948 25.8097 47.3715 25.235 45.5976 24.7353C44.6231 24.4605 42.2246 24.8353 39.0765 27.1589C37.1027 28.608 34.879 30.8067 32.5304 34.0797C32.5304 34.0797 28.4079 39.7013 30.3817 45.8476C30.3817 45.8476 32.0557 65.5108 48.096 64.0866C48.096 64.0866 65.3606 63.0373 62.5373 41.875C62.5373 41.875 62.9621 40.176 64.1614 42.0249C65.2107 43.6739 66.8098 47.6715 65.7854 53.0932C64.736 58.7149 60.9883 68.1092 48.4458 70.4078C48.4458 70.4078 27.1337 75.155 18.6388 48.521L18.5888 48.571Z" fill="black"/>
<path d="M34.2044 32.4307C34.2044 32.4307 34.2294 32.4307 34.2544 32.4307C35.2788 31.9061 35.5786 33.0304 37.4525 34.5295C39.3263 36.0286 41.525 34.7793 41.8248 34.6294C42.1246 34.4795 41.8748 34.6294 41.8748 34.6044C42.7243 33.9798 43.6737 33.8049 43.7737 34.1547C43.8486 34.4545 45.0729 37.9025 46.497 36.0786C47.6213 34.6294 45.9473 33.9298 45.1228 33.705C44.823 33.63 44.6481 33.3052 44.7481 33.0054C44.848 32.7056 44.773 32.9305 44.798 32.8805C44.898 32.6806 45.1478 32.5557 45.3727 32.6056C49.0205 33.2303 48.221 30.8567 48.221 30.8317C46.9967 28.8329 45.3727 31.0816 44.898 31.2315C44.7731 31.2814 44.6481 31.2814 44.5482 31.2315C44.2733 31.1565 44.1234 30.8567 44.1734 30.5819C44.873 27.4088 43.249 27.7086 42.8492 27.8335C42.4494 27.9584 42.7493 27.8585 42.7243 27.8835C40.7505 29.1327 43.199 30.382 42.8992 30.9816C42.3745 32.006 39.5262 31.6562 39.4762 31.3814C37.4025 29.7324 38.3269 27.5587 38.3519 27.5837C41.2502 23.4362 26.3841 37.2528 34.1794 32.4557L34.2044 32.4307Z" fill="black"/>
<path d="M26.634 22.9364C26.634 22.9364 26.634 22.9115 26.6589 22.8865C27.2836 21.9121 26.1842 21.5123 24.885 19.4885C23.6607 17.5897 25.0099 15.416 25.2098 15.1411C25.4097 14.8663 25.2348 15.1161 25.2598 15.0912C25.9594 14.2916 26.2342 13.3672 25.8844 13.2423C25.5846 13.1423 22.2616 11.5933 24.2354 10.344C25.7845 9.34463 26.3091 11.0936 26.4591 11.9431C26.609 12.7925 26.8338 12.4677 27.1337 12.3678C27.4335 12.2679 27.2086 12.3428 27.2586 12.3178C27.4834 12.2429 27.6084 12.018 27.6084 11.7682C27.3335 8.09538 29.6322 9.09478 29.6322 9.11976C31.506 10.5189 29.1075 11.9431 28.9076 12.3928C28.8576 12.5177 28.8326 12.6177 28.8576 12.7176C28.9076 12.9924 29.1824 13.1673 29.4573 13.1423C32.6803 12.7676 32.2306 14.3416 32.0807 14.7164C31.9308 15.0912 32.0307 14.8163 32.0057 14.8413C30.5816 16.6902 29.5572 14.1417 28.9576 14.3916C27.8832 14.8163 27.9582 17.6896 28.233 17.7396C29.6571 19.9632 31.9308 19.2387 31.9058 19.2137C36.3281 16.7152 21.1373 30.2071 26.6589 22.8865L26.634 22.9364Z" fill="black"/>
<path d="M36.3531 42.6996C37.6523 43.3242 38.5518 43.699 39.1764 46.3474C39.7511 48.7459 40.9254 47.6466 41.1252 47.3967C41.3251 47.1469 41.1502 47.3468 41.1502 47.3218C41.1502 46.972 41.3251 44.8483 42.8492 45.323C44.5982 45.8727 43.0741 48.2462 41.9747 47.9464C40.8754 47.6466 41.8998 47.9464 41.8498 47.9714C41.6749 48.1213 41.2752 48.571 41.6 49.0707C41.9248 49.5704 42.7243 49.3206 42.8242 49.2706C42.9242 49.2206 42.8242 49.2706 42.8492 49.2706C43.0241 49.2206 44.5982 48.8958 44.823 50.0701C45.0729 51.3194 43.4988 51.969 42.3995 50.7697C42.3995 50.7697 42.3495 50.7447 42.3245 50.7197C42.1246 50.6698 41.2752 50.4949 41.2002 50.8447C41.1252 51.1945 40.9753 51.4443 41.6999 52.2438C42.4245 53.0433 41.7249 52.2688 41.7499 52.2688C41.9248 52.3438 42.9242 52.7935 42.7992 53.668C42.6993 54.4175 41.5 55.242 40.6755 54.4425C39.801 53.593 40.7505 52.4937 40.6255 52.5436C40.7255 52.4937 40.2508 51.8191 40.1259 51.6192C40.0009 51.4193 40.0759 51.5692 40.0509 51.5692C39.851 51.5193 39.0515 51.3444 38.9016 51.5692C38.8516 51.5692 38.3519 52.0439 38.4019 52.4687C38.4519 52.8435 38.0021 54.1177 36.8028 53.3432C35.7035 52.6186 36.528 51.2444 37.4025 51.2694C37.4025 51.2694 38.0771 51.1945 38.1271 50.7197C38.177 50.245 36.3781 47.6216 35.9034 47.3468C35.4287 47.0719 35.8284 47.3468 35.8034 47.3468C35.4287 47.4967 32.6304 48.596 31.7309 52.5686C31.7059 52.6936 31.531 52.7185 31.4811 52.5686L28.9576 45.8977C28.8077 45.4729 28.9826 44.9732 29.4073 44.7983C31.1063 43.9988 35.2538 42.1499 36.2782 42.6496L36.3531 42.6996Z" fill="black"/>
<path d="M11.643 52.8684C11.543 54.3175 11.1683 55.242 12.9422 57.3157C14.7161 59.3895 13.4669 59.2896 12.9422 59.4644C12.7423 59.5144 12.5424 59.4894 12.3675 59.3895C11.8179 59.0647 10.3937 58.3901 9.944 59.7143C9.41932 61.3383 11.7929 61.5632 12.4425 60.7387C12.6674 60.4638 13.0421 60.3389 13.3669 60.5138C13.6917 60.6887 13.6168 60.7137 13.7167 60.9136C13.9416 61.5132 13.3919 61.888 13.192 61.9879C12.9922 62.0879 13.0921 62.0379 13.0671 62.0879C12.7923 62.3377 11.8678 63.2871 12.6424 64.1116C13.4169 64.9361 14.866 64.2116 14.6412 62.7125C14.6412 62.5626 14.6412 62.4127 14.6911 62.2877C14.841 61.9879 15.1159 61.5132 15.3657 61.6381C15.6156 61.7631 15.9654 61.813 16.1653 62.7125C16.3651 63.6119 16.1902 62.9124 16.1653 63.0123C16.1153 63.3371 16.0153 64.2116 16.7149 64.5864C17.3645 64.9361 18.7387 64.4614 18.5638 63.3121C18.3889 62.1129 16.9398 62.2128 17.0647 62.1378C16.9898 62.1878 16.8149 61.7381 16.7149 61.4383C16.615 61.1384 16.64 61.0385 16.7149 60.8386C16.8648 60.5388 17.0897 60.164 17.2896 60.189C17.2896 60.164 17.9892 60.0141 18.314 60.3139C18.5888 60.5638 19.888 60.9635 19.938 59.5144C19.9879 58.1902 18.3889 58.0653 17.9142 58.7899C17.9142 58.7899 17.4645 59.2896 17.0397 59.0647C16.615 58.8398 14.866 55.3919 15.6156 55.242C16.3651 55.0921 22.0867 55.4918 22.6863 55.167C23.286 54.8422 22.9362 55.1171 23.0861 55.167C23.7107 55.3419 24.2604 54.7423 24.0105 54.1427C23.0611 51.969 21.562 48.9958 20.3877 48.621C18.214 47.9214 11.668 50.9945 11.568 52.8434L11.643 52.8684Z" fill="black"/>
<path d="M50.3947 22.3368C51.7607 22.3368 52.8682 21.2294 52.8682 19.8633C52.8682 18.4973 51.7607 17.3898 50.3947 17.3898C49.0286 17.3898 47.9211 18.4973 47.9211 19.8633C47.9211 21.2294 49.0286 22.3368 50.3947 22.3368Z" fill="white"/>
</svg>
